<svg width="16" height="16" viewBox="0 0 16 16" fill="none" xmlns="http://www.w3.org/2000/svg">
<path d="M13.7143 1.33334H2.28272C1.75891 1.33334 1.33331 1.76489 1.33331 2.29465V13.7054C1.33331 14.2351 1.75891 14.6667 2.28272 14.6667H13.7143C14.2381 14.6667 14.6666 14.2351 14.6666 13.7054V2.29465C14.6666 1.76489 14.2381 1.33334 13.7143 1.33334ZM5.36307 12.7619H3.38688V6.39882H5.36605V12.7619H5.36307ZM4.37498 5.52977C3.74105 5.52977 3.22915 5.01489 3.22915 4.38394C3.22915 3.75299 3.74105 3.23811 4.37498 3.23811C5.00593 3.23811 5.52081 3.75299 5.52081 4.38394C5.52081 5.01787 5.00891 5.52977 4.37498 5.52977V5.52977ZM12.7708 12.7619H10.7946V9.66668C10.7946 8.92858 10.7797 7.97918 9.76784 7.97918C8.73808 7.97918 8.58034 8.78275 8.58034 9.61311V12.7619H6.60415V6.39882H8.49998V7.26787H8.52677C8.79165 6.76787 9.43748 6.24108 10.3988 6.24108C12.3988 6.24108 12.7708 7.55953 12.7708 9.27382V12.7619V12.7619Z" fill="white"/>
</svg>
